<svg width="284" height="126" viewBox="0 0 284 126" fill="none" xmlns="http://www.w3.org/2000/svg">
<g filter="url(#filter0_d)">
<path d="M42.36 101.2C42.36 104.4 40.76 106 37.56 106H8.4C5.2 106 3.6 104.4 3.6 101.2V97.96C3.6 95.56 4.16 93.56 5.28 91.96L25.2 64.48C25.92 63.52 26.28 62.64 26.28 61.84C26.28 60.88 25.88 60.12 25.08 59.56C24.36 59 23.32 58.72 21.96 58.72H8.4C5.2 58.72 3.6 57.12 3.6 53.92V52.6C3.6 49.4 5.2 47.8 8.4 47.8H37.68C40.88 47.8 42.48 49.4 42.48 52.6V56.56C42.48 58.96 41.92 60.96 40.8 62.56L21.72 89.32C21.08 90.2 20.76 91.08 20.76 91.96C20.76 92.84 21.16 93.6 21.96 94.24C22.76 94.8 23.8 95.08 25.08 95.08H37.56C40.76 95.08 42.36 96.68 42.36 99.88V101.2ZM61.2947 18.16C61.6947 19.2 61.8947 20.04 61.8947 20.68C61.8947 21.64 61.5747 22.4 60.9347 22.96C60.2947 23.52 59.3747 23.8 58.1747 23.8H56.6147C53.8947 23.8 52.0147 22.6 50.9747 20.2L46.6547 11.08C46.2547 10.36 46.0547 9.56 46.0547 8.67999C46.0547 7.72 46.4147 6.96 47.1347 6.39999C47.8547 5.75999 48.8147 5.43999 50.0147 5.43999H51.9347C54.5747 5.43999 56.4147 6.67999 57.4547 9.16L61.2947 18.16Z" fill="#94E314"/>
<path d="M79.995 102.16C79.995 105.36 78.395 106.96 75.195 106.96H73.875C70.675 106.96 69.075 105.36 69.075 102.16V60.04C69.075 57.72 69.875 55.76 71.475 54.16L75.435 50.2C77.035 48.6 78.995 47.8 81.315 47.8H83.475C86.675 47.8 88.275 49.4 88.275 52.6V53.92C88.275 57.12 86.915 58.72 84.195 58.72C82.835 58.72 81.795 59.16 81.075 60.04C80.355 60.84 79.995 62 79.995 63.52V102.16ZM107.771 106.96C105.451 106.96 103.491 106.16 101.891 104.56L97.9313 100.6C96.3313 99 95.5313 97.04 95.5313 94.72V80.8C95.5313 79.6 95.7313 78.56 96.1313 77.68C96.5313 76.72 97.1713 75.8 98.0513 74.92L101.891 71.08C103.491 69.48 105.451 68.68 107.771 68.68H119.171C122.371 68.68 123.971 67.08 123.971 63.88V63.52C123.971 60.32 122.371 58.72 119.171 58.72H100.691C97.4913 58.72 95.8913 57.12 95.8913 53.92V52.6C95.8913 49.4 97.4913 47.8 100.691 47.8H122.651C124.971 47.8 126.931 48.6 128.531 50.2L132.491 54.16C134.091 55.76 134.891 57.72 134.891 60.04V102.16C134.891 105.36 133.291 106.96 130.091 106.96H107.771ZM123.971 83.32C123.971 80.12 122.371 78.52 119.171 78.52H111.251C108.051 78.52 106.451 80.12 106.451 83.32V92.32C106.451 95.52 108.051 97.12 111.251 97.12H119.171C122.371 97.12 123.971 95.52 123.971 92.32V83.32ZM160.268 102.4C160.268 105.6 158.668 107.2 155.468 107.2H154.148C150.948 107.2 149.348 105.6 149.348 102.4V60.04C149.348 57.72 150.148 55.76 151.748 54.16L155.708 50.2C157.308 48.6 159.268 47.8 161.588 47.8H176.468C178.788 47.8 180.748 48.64 182.348 50.32L186.188 54.16C187.788 55.76 188.588 57.72 188.588 60.04V102.4C188.588 105.6 186.988 107.2 183.788 107.2H182.588C179.388 107.2 177.788 105.6 177.788 102.4V63.52C177.788 60.32 176.188 58.72 172.988 58.72H165.068C161.868 58.72 160.268 60.32 160.268 63.52V102.4ZM214.06 106.96C211.74 106.96 209.78 106.16 208.18 104.56L204.22 100.6C202.62 99 201.82 97.04 201.82 94.72V80.8C201.82 79.6 202.02 78.56 202.42 77.68C202.82 76.72 203.46 75.8 204.34 74.92L208.18 71.08C209.78 69.48 211.74 68.68 214.06 68.68H225.46C228.66 68.68 230.26 67.08 230.26 63.88V63.52C230.26 60.32 228.66 58.72 225.46 58.72H206.98C203.78 58.72 202.18 57.12 202.18 53.92V52.6C202.18 49.4 203.78 47.8 206.98 47.8H228.94C231.26 47.8 233.22 48.6 234.82 50.2L238.78 54.16C240.38 55.76 241.18 57.72 241.18 60.04V102.16C241.18 105.36 239.58 106.96 236.38 106.96H214.06ZM230.26 83.32C230.26 80.12 228.66 78.52 225.46 78.52H217.54C214.34 78.52 212.74 80.12 212.74 83.32V92.32C212.74 95.52 214.34 97.12 217.54 97.12H225.46C228.66 97.12 230.26 95.52 230.26 92.32V83.32Z" fill="#FF914D"/>
</g>
<defs>
<filter id="filter0_d" x="3.60001" y="5.43999" width="246.58" height="110.76" filterUnits="userSpaceOnUse" color-interpolation-filters="sRGB">
<feFlood flood-opacity="0" result="BackgroundImageFix"/>
<feColorMatrix in="SourceAlpha" type="matrix" values="0 0 0 0 0 0 0 0 0 0 0 0 0 0 0 0 0 0 127 0"/>
<feOffset dx="5" dy="5"/>
<feGaussianBlur stdDeviation="2"/>
<feColorMatrix type="matrix" values="0 0 0 0 0 0 0 0 0 0 0 0 0 0 0 0 0 0 0.25 0"/>
<feBlend mode="normal" in2="BackgroundImageFix" result="effect1_dropShadow"/>
<feBlend mode="normal" in="SourceGraphic" in2="effect1_dropShadow" result="shape"/>
</filter>
</defs>
</svg>
