<svg width="384" height="132" viewBox="0 0 384 132" fill="none" xmlns="http://www.w3.org/2000/svg">
<g filter="url(#filter0_d)">
<path d="M47.3476 115.24C47.3476 119.08 45.4276 121 41.5876 121H6.59563C2.75563 121 0.835625 119.08 0.835625 115.24V111.352C0.835625 108.472 1.50763 106.072 2.85163 104.152L26.7556 71.176C27.6196 70.024 28.0516 68.968 28.0516 68.008C28.0516 66.856 27.5716 65.944 26.6116 65.272C25.7476 64.6 24.4996 64.264 22.8676 64.264H6.59563C2.75563 64.264 0.835625 62.344 0.835625 58.504V56.92C0.835625 53.08 2.75563 51.16 6.59563 51.16H41.7316C45.5716 51.16 47.4916 53.08 47.4916 56.92V61.672C47.4916 64.552 46.8196 66.952 45.4756 68.872L22.5796 100.984C21.8116 102.04 21.4276 103.096 21.4276 104.152C21.4276 105.208 21.9076 106.12 22.8676 106.888C23.8276 107.56 25.0756 107.896 26.6116 107.896H41.5876C45.4276 107.896 47.3476 109.816 47.3476 113.656V115.24ZM70.0693 15.592C70.5493 16.84 70.7892 17.848 70.7892 18.616C70.7892 19.768 70.4053 20.68 69.6373 21.352C68.8693 22.024 67.7653 22.36 66.3253 22.36H64.4533C61.1893 22.36 58.9333 20.92 57.6853 18.04L52.5013 7.096C52.0213 6.232 51.7812 5.272 51.7812 4.21599C51.7812 3.064 52.2133 2.152 53.0773 1.47999C53.9413 0.711992 55.0933 0.327991 56.5332 0.327991H58.8373C62.0053 0.327991 64.2133 1.81599 65.4613 4.79199L70.0693 15.592ZM334.923 83.08C334.923 81 335.603 79.28 336.963 77.92C338.323 76.48 340.043 75.76 342.123 75.76C347.403 75.76 351.643 74.52 354.843 72.04C358.043 69.56 359.643 65.72 359.643 60.52C359.643 56.52 358.203 53.2 355.323 50.56C352.443 47.92 348.843 46.6 344.523 46.6C340.123 46.6 336.243 48.08 332.883 51.04C330.963 52.8 328.963 53.68 326.883 53.68C325.363 53.68 324.003 53.2 322.803 52.24C320.723 50.64 319.683 48.76 319.683 46.6C319.683 44.76 320.443 43.08 321.963 41.56C324.843 38.6 328.203 36.32 332.043 34.72C335.963 33.04 340.123 32.2 344.523 32.2C349.963 32.2 354.923 33.44 359.403 35.92C363.883 38.4 367.443 41.84 370.083 46.24C372.723 50.56 374.043 55.32 374.043 60.52C374.043 68.2 371.843 74.28 367.443 78.76C363.043 83.24 357.203 86.04 349.923 87.16C349.523 87.32 349.323 87.52 349.323 87.76V92.2C349.323 94.28 348.643 96.04 347.283 97.48C345.923 98.84 344.203 99.52 342.123 99.52C340.043 99.52 338.323 98.84 336.963 97.48C335.603 96.04 334.923 94.28 334.923 92.2V83.08ZM341.523 121C339.203 121 337.403 120.4 336.123 119.2C334.923 117.92 334.323 116.12 334.323 113.8V111.76C334.323 109.44 334.923 107.68 336.123 106.48C337.403 105.2 339.203 104.56 341.523 104.56H343.083C345.403 104.56 347.163 105.2 348.363 106.48C349.643 107.68 350.283 109.44 350.283 111.76V113.8C350.283 116.12 349.643 117.92 348.363 119.2C347.163 120.4 345.403 121 343.083 121H341.523Z" fill="#94E314"/>
<path d="M92.5096 116.392C92.5096 120.232 90.5896 122.152 86.7496 122.152H85.1656C81.3256 122.152 79.4056 120.232 79.4056 116.392V65.848C79.4056 63.064 80.3656 60.712 82.2856 58.792L87.0376 54.04C88.9576 52.12 91.3096 51.16 94.0936 51.16H96.6856C100.526 51.16 102.446 53.08 102.446 56.92V58.504C102.446 62.344 100.814 64.264 97.5496 64.264C95.9176 64.264 94.6696 64.792 93.8056 65.848C92.9416 66.808 92.5096 68.2 92.5096 70.024V116.392ZM125.841 122.152C123.057 122.152 120.705 121.192 118.785 119.272L114.033 114.52C112.113 112.6 111.153 110.248 111.153 107.464V90.76C111.153 89.32 111.393 88.072 111.873 87.016C112.353 85.864 113.121 84.76 114.177 83.704L118.785 79.096C120.705 77.176 123.057 76.216 125.841 76.216H139.521C143.361 76.216 145.281 74.296 145.281 70.456V70.024C145.281 66.184 143.361 64.264 139.521 64.264H117.345C113.505 64.264 111.585 62.344 111.585 58.504V56.92C111.585 53.08 113.505 51.16 117.345 51.16H143.697C146.481 51.16 148.833 52.12 150.753 54.04L155.505 58.792C157.425 60.712 158.385 63.064 158.385 65.848V116.392C158.385 120.232 156.465 122.152 152.625 122.152H125.841ZM145.281 93.784C145.281 89.944 143.361 88.024 139.521 88.024H130.017C126.177 88.024 124.257 89.944 124.257 93.784V104.584C124.257 108.424 126.177 110.344 130.017 110.344H139.521C143.361 110.344 145.281 108.424 145.281 104.584V93.784ZM188.838 116.68C188.838 120.52 186.918 122.44 183.078 122.44H181.494C177.654 122.44 175.734 120.52 175.734 116.68V65.848C175.734 63.064 176.694 60.712 178.614 58.792L183.366 54.04C185.286 52.12 187.638 51.16 190.422 51.16H208.278C211.062 51.16 213.414 52.168 215.334 54.184L219.942 58.792C221.862 60.712 222.822 63.064 222.822 65.848V116.68C222.822 120.52 220.902 122.44 217.062 122.44H215.622C211.782 122.44 209.862 120.52 209.862 116.68V70.024C209.862 66.184 207.942 64.264 204.102 64.264H194.598C190.758 64.264 188.838 66.184 188.838 70.024V116.68ZM253.388 122.152C250.604 122.152 248.252 121.192 246.332 119.272L241.58 114.52C239.66 112.6 238.7 110.248 238.7 107.464V90.76C238.7 89.32 238.94 88.072 239.42 87.016C239.9 85.864 240.668 84.76 241.724 83.704L246.332 79.096C248.252 77.176 250.604 76.216 253.388 76.216H267.068C270.908 76.216 272.828 74.296 272.828 70.456V70.024C272.828 66.184 270.908 64.264 267.068 64.264H244.892C241.052 64.264 239.132 62.344 239.132 58.504V56.92C239.132 53.08 241.052 51.16 244.892 51.16H271.244C274.028 51.16 276.38 52.12 278.3 54.04L283.052 58.792C284.972 60.712 285.932 63.064 285.932 65.848V116.392C285.932 120.232 284.012 122.152 280.172 122.152H253.388ZM272.828 93.784C272.828 89.944 270.908 88.024 267.068 88.024H257.564C253.724 88.024 251.804 89.944 251.804 93.784V104.584C251.804 108.424 253.724 110.344 257.564 110.344H267.068C270.908 110.344 272.828 108.424 272.828 104.584V93.784Z" fill="#FF914D"/>
</g>
<defs>
<filter id="filter0_d" x="0.835632" y="0.327988" width="382.207" height="131.112" filterUnits="userSpaceOnUse" color-interpolation-filters="sRGB">
<feFlood flood-opacity="0" result="BackgroundImageFix"/>
<feColorMatrix in="SourceAlpha" type="matrix" values="0 0 0 0 0 0 0 0 0 0 0 0 0 0 0 0 0 0 127 0"/>
<feOffset dx="5" dy="5"/>
<feGaussianBlur stdDeviation="2"/>
<feColorMatrix type="matrix" values="0 0 0 0 0 0 0 0 0 0 0 0 0 0 0 0 0 0 0.25 0"/>
<feBlend mode="normal" in2="BackgroundImageFix" result="effect1_dropShadow"/>
<feBlend mode="normal" in="SourceGraphic" in2="effect1_dropShadow" result="shape"/>
</filter>
</defs>
</svg>
