<svg width="284" height="243" viewBox="0 0 284 243" fill="none" xmlns="http://www.w3.org/2000/svg">
<path d="M93.664 230.48C93.664 238.16 89.824 242 82.144 242H12.16C4.48 242 0.64 238.16 0.64 230.48V222.704C0.64 216.944 1.984 212.144 4.672 208.304L52.48 142.352C54.208 140.048 55.072 137.936 55.072 136.016C55.072 133.712 54.112 131.888 52.192 130.544C50.464 129.2 47.968 128.528 44.704 128.528H12.16C4.48 128.528 0.64 124.688 0.64 117.008V113.84C0.64 106.16 4.48 102.32 12.16 102.32H82.432C90.112 102.32 93.952 106.16 93.952 113.84V123.344C93.952 129.104 92.608 133.904 89.92 137.744L44.128 201.968C42.592 204.08 41.824 206.192 41.824 208.304C41.824 210.416 42.784 212.24 44.704 213.776C46.624 215.12 49.12 215.792 52.192 215.792H82.144C89.824 215.792 93.664 219.632 93.664 227.312V230.48ZM139.107 31.184C140.067 33.68 140.547 35.696 140.547 37.232C140.547 39.536 139.779 41.36 138.243 42.704C136.707 44.048 134.499 44.72 131.619 44.72H127.875C121.347 44.72 116.835 41.84 114.339 36.08L103.971 14.192C103.011 12.464 102.531 10.544 102.531 8.43199C102.531 6.12799 103.395 4.30399 105.123 2.95999C106.851 1.42398 109.155 0.655983 112.035 0.655983H116.643C122.979 0.655983 127.395 3.63198 129.891 9.58399L139.107 31.184Z" fill="#94E314"/>
<path d="M154.996 238.928C154.996 241.488 153.716 242.768 151.156 242.768H150.1C147.54 242.768 146.26 241.488 146.26 238.928V205.232C146.26 203.376 146.9 201.808 148.18 200.528L151.348 197.36C152.628 196.08 154.196 195.44 156.052 195.44H157.78C160.34 195.44 161.62 196.72 161.62 199.28V200.336C161.62 202.896 160.532 204.176 158.356 204.176C157.268 204.176 156.436 204.528 155.86 205.232C155.284 205.872 154.996 206.8 154.996 208.016V238.928ZM177.217 242.768C175.361 242.768 173.793 242.128 172.513 240.848L169.345 237.68C168.065 236.4 167.425 234.832 167.425 232.976V221.84C167.425 220.88 167.585 220.048 167.905 219.344C168.225 218.576 168.737 217.84 169.441 217.136L172.513 214.064C173.793 212.784 175.361 212.144 177.217 212.144H186.337C188.897 212.144 190.177 210.864 190.177 208.304V208.016C190.177 205.456 188.897 204.176 186.337 204.176H171.553C168.993 204.176 167.713 202.896 167.713 200.336V199.28C167.713 196.72 168.993 195.44 171.553 195.44H189.121C190.977 195.44 192.545 196.08 193.825 197.36L196.993 200.528C198.273 201.808 198.913 203.376 198.913 205.232V238.928C198.913 241.488 197.633 242.768 195.073 242.768H177.217ZM190.177 223.856C190.177 221.296 188.897 220.016 186.337 220.016H180.001C177.441 220.016 176.161 221.296 176.161 223.856V231.056C176.161 233.616 177.441 234.896 180.001 234.896H186.337C188.897 234.896 190.177 233.616 190.177 231.056V223.856ZM219.215 239.12C219.215 241.68 217.935 242.96 215.375 242.96H214.319C211.759 242.96 210.479 241.68 210.479 239.12V205.232C210.479 203.376 211.119 201.808 212.399 200.528L215.567 197.36C216.847 196.08 218.415 195.44 220.271 195.44H232.175C234.031 195.44 235.599 196.112 236.879 197.456L239.951 200.528C241.231 201.808 241.871 203.376 241.871 205.232V239.12C241.871 241.68 240.591 242.96 238.031 242.96H237.071C234.511 242.96 233.231 241.68 233.231 239.12V208.016C233.231 205.456 231.951 204.176 229.391 204.176H223.055C220.495 204.176 219.215 205.456 219.215 208.016V239.12ZM262.248 242.768C260.392 242.768 258.824 242.128 257.544 240.848L254.376 237.68C253.096 236.4 252.456 234.832 252.456 232.976V221.84C252.456 220.88 252.616 220.048 252.936 219.344C253.256 218.576 253.768 217.84 254.472 217.136L257.544 214.064C258.824 212.784 260.392 212.144 262.248 212.144H271.368C273.928 212.144 275.208 210.864 275.208 208.304V208.016C275.208 205.456 273.928 204.176 271.368 204.176H256.584C254.024 204.176 252.744 202.896 252.744 200.336V199.28C252.744 196.72 254.024 195.44 256.584 195.44H274.152C276.008 195.44 277.576 196.08 278.856 197.36L282.024 200.528C283.304 201.808 283.944 203.376 283.944 205.232V238.928C283.944 241.488 282.664 242.768 280.104 242.768H262.248ZM275.208 223.856C275.208 221.296 273.928 220.016 271.368 220.016H265.032C262.472 220.016 261.192 221.296 261.192 223.856V231.056C261.192 233.616 262.472 234.896 265.032 234.896H271.368C273.928 234.896 275.208 233.616 275.208 231.056V223.856Z" fill="#FF914D"/>
</svg>
