<svg width="93" height="28" viewBox="0 0 93 28" fill="none" xmlns="http://www.w3.org/2000/svg">
<path d="M0.0976857 27.8095C-0.0172435 27.7048 -0.0330728 27.5038 0.0625101 27.3629C0.158268 27.2217 21.0614 27.1066 46.6182 27.1066C87.6286 27.1066 93 27.1583 93 27.5533C93 27.9482 87.6325 28 46.6533 28C21.1627 28 0.212616 27.9143 0.0976872 27.8095H0.0976857ZM5.09925 23.3844V21.7466H6.40633H7.7134V13.9174V6.08826L9.51063 5.285L11.3079 4.48175V13.9669V23.452L10.4464 24.2371C9.68293 24.9328 9.32966 25.0221 7.34207 25.0221H5.09925V23.3844ZM23.4629 23.4588L23.5617 21.8955L24.7871 21.803L26.0124 21.7106V13.9906V6.27054L27.9731 5.36863L29.9337 4.46671V13.874V23.2813L28.9785 24.1517C28.1014 24.951 27.8329 25.0221 25.6937 25.0221H23.3641L23.4629 23.4588ZM1.5048 11.3293V1.80529L3.12778 1.05582C4.02042 0.643616 4.90269 0.306354 5.08839 0.306354C5.3142 0.306354 5.42602 3.70899 5.42602 10.5798V20.8532H3.46541H1.5048V11.3293ZM13.922 13.4707V6.08826L15.6851 5.30027C16.6548 4.86688 17.537 4.5933 17.6457 4.69231C17.7543 4.79132 17.8432 8.46803 17.8432 12.8628V20.8532H15.8826H13.922V13.4707ZM20.1306 11.2374V1.62154L21.9278 0.818294L23.7251 0.0150434V10.4341V20.8532H21.9278H20.1306V11.2374ZM33.7426 20.516C32.6888 19.9578 32.221 18.3703 32.221 15.3519V12.5115L35.3253 11.1062C38.3005 9.75937 38.4296 9.66038 38.4296 8.7259C38.4296 7.8101 38.3602 7.75087 37.286 7.75087C36.3116 7.75087 36.1423 7.85191 36.1423 8.43329C36.1423 8.96491 35.7435 9.29392 34.3378 9.92219C33.3453 10.3658 32.4631 10.7287 32.3772 10.7287C32.0146 10.7287 32.2594 7.05259 32.6835 6.12748C33.3275 4.72301 34.0361 4.47528 37.4096 4.47528C40.0501 4.47528 40.4484 4.54937 41.2707 5.19349L42.1875 5.9117L42.2852 13.3825L42.3828 20.8532H40.4062C38.8351 20.8532 38.4296 20.7581 38.4296 20.3897C38.4296 19.9701 38.3607 19.9701 37.7034 20.3897C36.8745 20.9188 34.6376 20.9901 33.7426 20.516ZM38.4296 15.3443C38.4296 14.1159 38.3488 13.1109 38.25 13.1109C38.1513 13.1109 37.6366 13.3154 37.1063 13.5652C36.202 13.9914 36.1423 14.1297 36.1423 15.7986V17.5776H37.286H38.4296V15.3443ZM44.6382 12.6643V4.47528H46.5989C48.2054 4.47528 48.5595 4.56429 48.5595 4.96811C48.5595 5.42668 48.601 5.42668 49.1571 4.96811C49.8419 4.40328 52.1729 4.30423 53.1834 4.79703C54.554 5.46548 54.7681 6.70817 54.7681 13.9947V20.8532H52.8075H50.8469V14.302V7.75087H49.7032H48.5595V14.302V20.8532H46.5989H44.6382V12.6643ZM57.9014 19.937C57.1042 19.0737 57.0555 18.8332 57.0555 15.7662V12.5115L60.1598 11.1062C63.135 9.75937 63.2641 9.66038 63.2641 8.7259C63.2641 7.81387 63.1916 7.75087 62.1431 7.75087C61.2294 7.75087 61.0028 7.87476 60.9177 8.42088C60.8476 8.8711 60.2773 9.35723 59.1795 9.90283C58.2808 10.3494 57.4353 10.7179 57.3005 10.7217C57.1657 10.7256 57.0555 9.73395 57.0555 8.51817C57.0555 6.5745 57.1576 6.19706 57.9014 5.39147C58.7418 4.48135 58.7689 4.47528 62.0016 4.47528C65.101 4.47528 65.294 4.51279 66.0572 5.26322L66.8585 6.05115V13.4522V20.8532H65.0613C63.6525 20.8532 63.2641 20.753 63.2641 20.3897C63.2641 19.9701 63.1951 19.9701 62.5378 20.3897C62.1312 20.6492 61.1373 20.8532 60.2795 20.8532C58.9698 20.8532 58.6246 20.7202 57.9014 19.937ZM63.2641 15.2002V12.8228L62.1204 13.3198C60.9916 13.8103 60.9767 13.8413 60.9767 15.6972V17.5776H62.1204H63.2641V15.2002ZM69.4727 12.6643V4.47528H71.2699C72.6787 4.47528 73.0671 4.57548 73.0671 4.93884C73.0671 5.3584 73.1361 5.3584 73.7934 4.93884C74.9535 4.19835 77.3809 4.33265 78.2606 5.18599L78.9933 5.8967L79.7732 5.18599C80.8661 4.19008 83.1279 4.19374 84.4041 5.19351L85.3209 5.91172L85.4186 13.3825L85.5163 20.8532H83.5397H81.5631V14.3021V7.75089H80.4194H79.2757V14.3021V20.8532H77.4785H75.6813V14.3021V7.75089H74.3742H73.0671V14.3021V20.8532H71.2699H69.4727V12.6643ZM87.7717 19.2154V17.5776H89.7323H91.6929V19.2154V20.8532H89.7323H87.7717V19.2154ZM7.7134 3.28918C7.7134 1.80895 7.71739 1.80344 9.33638 1.05582C10.229 0.643616 11.0378 0.306354 11.1336 0.306354C11.2294 0.306354 11.3079 0.974102 11.3079 1.79024C11.3079 3.27046 11.3039 3.27598 9.68488 4.0236C8.79224 4.4358 7.98349 4.77306 7.88765 4.77306C7.79181 4.77306 7.7134 4.10531 7.7134 3.28918ZM13.922 3.1973V1.62154L15.729 0.813922C17.7649 -0.0959819 17.961 0.0160285 17.7833 1.98728C17.6899 3.02337 17.5206 3.21442 16.046 3.94721C15.1474 4.39378 14.3019 4.76229 14.1671 4.76611C14.0323 4.76998 13.922 4.06397 13.922 3.1973ZM26.0124 3.28845V1.80383L27.9731 0.901915L29.9337 0V1.58004V3.1601L28.1292 3.96658C27.1367 4.41015 26.2545 4.77306 26.1686 4.77306C26.0827 4.77306 26.0124 4.10499 26.0124 3.28845Z" fill="white"/>
<path d="M0.0976857 27.8095C-0.0172435 27.7048 -0.0330728 27.5038 0.0625101 27.3629C0.158268 27.2217 21.0614 27.1066 46.6182 27.1066C87.6286 27.1066 93 27.1583 93 27.5533C93 27.9482 87.6325 28 46.6533 28C21.1627 28 0.212616 27.9143 0.0976872 27.8095H0.0976857ZM5.16387 23.4588L5.26264 21.8955L6.48802 21.803L7.7134 21.7106V13.9913V6.272L9.33638 5.52253C10.229 5.11033 11.0378 4.77306 11.1336 4.77306C11.2294 4.77306 11.3079 8.93741 11.3079 14.0272V23.2813L10.3527 24.1517C9.48909 24.9387 9.18985 25.0221 7.23131 25.0221H5.0651L5.16387 23.4588ZM23.4629 23.4588L23.5617 21.8955L24.7871 21.803L26.0124 21.7106V13.9906V6.27054L27.9731 5.36863L29.9337 4.46671V13.874V23.2813L28.9785 24.1517C28.1014 24.951 27.8329 25.0221 25.6937 25.0221H23.3641L23.4629 23.4588ZM1.5048 11.3293V1.80529L3.12778 1.05582C4.02042 0.643616 4.82917 0.306354 4.925 0.306354C5.02084 0.306354 5.09925 4.9294 5.09925 10.5798V20.8532H3.30203H1.5048V11.3293ZM13.922 13.4707V6.08826L15.6851 5.30027C16.6548 4.86688 17.537 4.5933 17.6457 4.69231C17.7543 4.79132 17.8432 8.46803 17.8432 12.8628V20.8532H15.8826H13.922V13.4707ZM20.1306 11.2374V1.62154L21.9278 0.818294L23.7251 0.0150434V10.4341V20.8532H21.9278H20.1306V11.2374ZM33.7426 20.516C32.6888 19.9578 32.221 18.3703 32.221 15.3519V12.5115L35.3253 11.1062C38.3005 9.75937 38.4296 9.66038 38.4296 8.7259C38.4296 7.8101 38.3602 7.75087 37.286 7.75087C36.3116 7.75087 36.1423 7.85191 36.1423 8.43329C36.1423 8.96491 35.7435 9.29392 34.3378 9.92219C33.3453 10.3658 32.4631 10.7287 32.3772 10.7287C32.0146 10.7287 32.2594 7.05259 32.6835 6.12748C33.3275 4.72301 34.0361 4.47528 37.4096 4.47528C40.0501 4.47528 40.4484 4.54937 41.2707 5.19349L42.1875 5.9117L42.2852 13.3825L42.3828 20.8532H40.4062C38.8351 20.8532 38.4296 20.7581 38.4296 20.3897C38.4296 19.9701 38.3607 19.9701 37.7034 20.3897C36.8745 20.9188 34.6376 20.9901 33.7426 20.516ZM38.4296 15.3443C38.4296 14.1159 38.3488 13.1109 38.25 13.1109C38.1513 13.1109 37.6366 13.3154 37.1063 13.5652C36.202 13.9914 36.1423 14.1297 36.1423 15.7986V17.5776H37.286H38.4296V15.3443ZM44.6382 12.6643V4.47528H46.5989C48.2054 4.47528 48.5595 4.56429 48.5595 4.96811C48.5595 5.42668 48.601 5.42668 49.1571 4.96811C49.8419 4.40328 52.1729 4.30423 53.1834 4.79703C54.554 5.46548 54.7681 6.70817 54.7681 13.9947V20.8532H52.8075H50.8469V14.302V7.75087H49.7032H48.5595V14.302V20.8532H46.5989H44.6382V12.6643ZM57.9014 19.937C57.1042 19.0737 57.0555 18.8332 57.0555 15.7662V12.5115L60.1598 11.1062C63.135 9.75937 63.2641 9.66038 63.2641 8.7259C63.2641 7.81387 63.1916 7.75087 62.1431 7.75087C61.2294 7.75087 61.0028 7.87476 60.9177 8.42088C60.8476 8.8711 60.2773 9.35723 59.1795 9.90283C58.2808 10.3494 57.4353 10.7179 57.3005 10.7217C57.1657 10.7256 57.0555 9.73395 57.0555 8.51817C57.0555 6.5745 57.1576 6.19706 57.9014 5.39147C58.7418 4.48135 58.7689 4.47528 62.0016 4.47528C65.101 4.47528 65.294 4.51279 66.0572 5.26322L66.8585 6.05115V13.4522V20.8532H65.0613C63.6525 20.8532 63.2641 20.753 63.2641 20.3897C63.2641 19.9701 63.1951 19.9701 62.5378 20.3897C62.1312 20.6492 61.1373 20.8532 60.2795 20.8532C58.9698 20.8532 58.6246 20.7202 57.9014 19.937ZM63.2641 15.2002V12.8228L62.1204 13.3198C60.9916 13.8103 60.9767 13.8413 60.9767 15.6972V17.5776H62.1204H63.2641V15.2002ZM69.4727 12.6643V4.47528H71.2699C72.8703 4.47528 73.0671 4.54289 73.0671 5.09246V5.70963L73.9281 5.09246C75.2647 4.13437 77.1559 4.25698 78.3031 5.3761C79.1374 6.19003 79.2452 6.22311 79.4208 5.71907C79.7968 4.6394 82.4546 4.09226 83.8996 4.79703C85.2702 5.46548 85.4843 6.70817 85.4843 13.9947V20.8532H83.6934H81.9024L81.8144 14.2276L81.7265 7.60198L80.5011 7.50956L79.2757 7.41714V14.1352V20.8532H77.4785H75.6813V14.1532V7.45309H74.3742H73.0671V14.1532V20.8532H71.2699H69.4727V12.6643ZM87.7717 19.2154V17.5776H89.7323H91.6929V19.2154V20.8532H89.7323H87.7717V19.2154ZM7.7134 3.28594C7.7134 1.8096 7.71811 1.80311 9.33638 1.05582C10.229 0.643616 11.0378 0.306354 11.1336 0.306354C11.2294 0.306354 11.3079 0.948443 11.3079 1.73322V3.1601L9.51063 3.96334L7.7134 4.76659V3.28594ZM13.922 3.1973V1.62154L15.729 0.813922C17.7649 -0.0959819 17.961 0.0160285 17.7833 1.98728C17.6899 3.02337 17.5206 3.21442 16.046 3.94721C15.1474 4.39378 14.3019 4.76229 14.1671 4.76611C14.0323 4.76998 13.922 4.06397 13.922 3.1973ZM26.0124 3.28845V1.80383L27.9731 0.901915L29.9337 0V1.58004V3.1601L28.1292 3.96658C27.1367 4.41015 26.2545 4.77306 26.1686 4.77306C26.0827 4.77306 26.0124 4.10499 26.0124 3.28845Z" fill="#CFCFCF"/>
<path d="M0.197723 27.5533C0.197723 27.1553 5.43166 27.1131 46.5172 27.1801C77.1921 27.2301 92.809 27.3561 92.7549 27.5533C92.7011 27.7497 76.9192 27.8768 46.4355 27.9266C5.42274 27.9935 0.197723 27.9513 0.197723 27.5533ZM5.16387 23.4589L5.26264 21.8955L6.48802 21.8031L7.7134 21.7107V13.9914V6.27206L9.33638 5.52259C10.229 5.11038 11.0378 4.77312 11.1336 4.77312C11.2294 4.77312 11.3079 8.93746 11.3079 14.0272V23.2813L10.3527 24.1518C9.48909 24.9388 9.18985 25.0222 7.23131 25.0222H5.0651L5.16387 23.4589ZM23.7251 23.3844V21.7466H25.0321H26.3392V13.9148V6.08291L27.8184 5.42802C28.632 5.06782 29.4407 4.77312 29.6156 4.77312C29.8148 4.77312 29.9337 8.11835 29.9337 13.7213C29.9337 21.2159 29.8515 22.8143 29.4279 23.5609C28.808 24.6532 27.8165 25.0222 25.501 25.0222H23.7251V23.3844ZM1.5048 11.3293V1.80534L3.12778 1.05587C4.02042 0.64367 4.82917 0.306408 4.925 0.306408C5.02084 0.306408 5.09925 4.92945 5.09925 10.5798V20.8533H3.30203H1.5048V11.3293ZM13.922 13.5627V6.27206L15.545 5.52259C16.4376 5.11038 17.2464 4.77312 17.3422 4.77312C17.438 4.77312 17.5165 8.39115 17.5165 12.8132V20.8533H15.7192H13.922V13.5627ZM20.1306 11.3293V1.80534L21.7536 1.05587C22.6462 0.64367 23.455 0.306408 23.5508 0.306408C23.6467 0.306408 23.7251 4.92945 23.7251 10.5798V20.8533H21.9278H20.1306V11.3293ZM33.5532 20.0823L32.5478 19.3114V15.9164V12.5214L35.4887 11.1754L38.4296 9.82941V8.64128C38.4296 7.48193 38.4019 7.45314 37.286 7.45314C36.2859 7.45314 36.1423 7.54603 36.1423 8.19258C36.1423 8.78012 35.8089 9.08597 34.5193 9.68148C33.6266 10.0937 32.8179 10.4309 32.7221 10.4309C32.6262 10.4309 32.5478 9.44421 32.5478 8.2382C32.5478 6.26607 32.6345 5.96647 33.4093 5.26039C34.2115 4.52939 34.4717 4.47534 37.1886 4.47534C42.2748 4.47534 42.3509 4.61555 42.3509 13.9948V20.8533H40.3903C38.8336 20.8533 38.4296 20.7578 38.4296 20.3897C38.4296 19.9702 38.3607 19.9702 37.7034 20.3897C36.5675 21.1147 34.7212 20.978 33.5532 20.0823ZM38.4296 15.2003V12.8228L37.286 13.3198C36.1572 13.8104 36.1423 13.8414 36.1423 15.6973V17.5777H37.286H38.4296V15.2003ZM44.6382 12.6643V4.47534H46.4355C48.0358 4.47534 48.2327 4.54294 48.2327 5.09251V5.70968L49.0937 5.09251C50.375 4.17406 52.4739 4.25261 53.5798 5.26039L54.4413 6.04545V13.4494V20.8533H52.6441H50.8469V14.1352V7.41719L49.6215 7.50961L48.3961 7.60203L48.3082 14.2277L48.2202 20.8533H46.4292H44.6382V12.6643ZM58.1357 20.1353C57.244 19.437 57.2158 19.3228 57.1093 15.977L56.9998 12.5367L60.1319 11.1188L63.2641 9.70098V8.55909C63.2641 7.42166 63.2593 7.41755 62.0387 7.50961C60.9985 7.58807 60.7985 7.71752 60.7157 8.366C60.6395 8.96235 60.2196 9.3081 58.8016 9.94186L56.985 10.7537L57.1058 8.33018C57.2163 6.11219 57.304 5.84593 58.1395 5.19098C58.9577 4.54968 59.3587 4.47534 62.0003 4.47534C64.8228 4.47534 64.9888 4.51238 65.9033 5.34577L66.8585 6.21621V13.5347V20.8533H65.0613C63.4609 20.8533 63.2641 20.7857 63.2641 20.2361V19.6189L62.4031 20.2361C61.1991 21.0992 59.3095 21.0545 58.1357 20.1353ZM63.2641 15.1894V12.8011L61.957 13.4088C60.6521 14.0154 60.6499 14.0194 60.6499 15.7971V17.5777H61.957H63.2641V15.1894ZM69.4727 12.6643V4.47534H71.2699C72.8703 4.47534 73.0671 4.54294 73.0671 5.09251V5.70968L73.9281 5.09251C75.2647 4.13442 77.1559 4.25703 78.3031 5.37615C79.1374 6.19009 79.2452 6.22317 79.4208 5.71912C79.7968 4.63945 82.4546 4.09231 83.8996 4.79708C85.2702 5.46553 85.4843 6.70822 85.4843 13.9948V20.8533H83.6934H81.9024L81.8144 14.2277L81.7265 7.60203L80.5011 7.50961L79.2757 7.41719V14.1352V20.8533H77.4785H75.6813V14.1532V7.45314H74.3742H73.0671V14.1532V20.8533H71.2699H69.4727V12.6643ZM87.7717 19.2155V17.5777H89.5689H91.3662V19.2155V20.8533H89.5689H87.7717V19.2155ZM7.7134 3.28599C7.7134 1.80965 7.71811 1.80316 9.33638 1.05587C10.229 0.64367 11.0378 0.306408 11.1336 0.306408C11.2294 0.306408 11.3079 0.948497 11.3079 1.73328V3.16015L9.51063 3.9634L7.7134 4.76664V3.28599ZM13.922 3.28599C13.922 1.80965 13.9267 1.80316 15.545 1.05587C16.4376 0.64367 17.2464 0.306408 17.3422 0.306408C17.438 0.306408 17.5165 0.948497 17.5165 1.73328V3.16015L15.7192 3.9634L13.922 4.76664V3.28599ZM26.3392 3.30812V1.80533L27.9622 1.05586C28.8548 0.643658 29.6716 0.306396 29.7773 0.306396C29.883 0.306396 29.9247 0.942903 29.8699 1.72085C29.7733 3.09309 29.7191 3.16032 28.0547 3.97311L26.3392 4.81091V3.30812Z" fill="#F4F6ED" fill-opacity="0.81"/>
<path d="M0.197723 27.5534C0.197723 27.1553 5.43166 27.1132 46.5172 27.1801C77.1921 27.2301 92.809 27.3562 92.7549 27.5534C92.7011 27.7497 76.9192 27.8769 46.4355 27.9266C5.42274 27.9935 0.197723 27.9514 0.197723 27.5534ZM5.42602 23.5513V22.0804L6.6514 21.9879L7.87678 21.8955L7.9639 14.0813L8.05101 6.26706L9.67943 5.51508L11.3079 4.7631V13.7163C11.3079 23.6306 11.2254 24.0832 9.30841 24.6922C8.73696 24.8737 7.62965 25.0222 6.84772 25.0222H5.42602V23.5513ZM23.7251 23.3844V21.7466H25.0321H26.3392V13.9148V6.08293L27.8184 5.42803C28.632 5.06784 29.4407 4.77313 29.6156 4.77313C29.8148 4.77313 29.9337 8.11836 29.9337 13.7213C29.9337 21.2159 29.8515 22.8143 29.4279 23.5609C28.808 24.6532 27.8165 25.0222 25.501 25.0222H23.7251V23.3844ZM1.83157 11.3293V1.80536L3.46541 1.05087L5.09925 0.296387V10.5748V20.8533H3.46541H1.83157V11.3293ZM13.922 13.5627V6.27207L15.545 5.5226C16.4376 5.11039 17.2464 4.77313 17.3422 4.77313C17.438 4.77313 17.5165 8.39116 17.5165 12.8132V20.8533H15.7192H13.922V13.5627ZM20.1306 11.3293V1.80536L21.7536 1.05589C22.6462 0.643684 23.455 0.306423 23.5508 0.306423C23.6467 0.306423 23.7251 4.92946 23.7251 10.5799V20.8533H21.9278H20.1306V11.3293ZM33.5532 20.0824L32.5478 19.3114V15.9164V12.5214L35.4887 11.1754L38.4296 9.82942V8.64129C38.4296 7.48194 38.4019 7.45316 37.286 7.45316C36.2859 7.45316 36.1423 7.54604 36.1423 8.19259C36.1423 8.78014 35.8089 9.08598 34.5193 9.6815C33.6266 10.0937 32.8179 10.431 32.7221 10.431C32.6262 10.431 32.5478 9.44423 32.5478 8.23822C32.5478 6.26608 32.6345 5.96648 33.4093 5.26041C34.2115 4.52941 34.4717 4.47535 37.1886 4.47535C42.2748 4.47535 42.3509 4.61556 42.3509 13.9948V20.8533H40.3903C38.8336 20.8533 38.4296 20.7578 38.4296 20.3897C38.4296 19.9702 38.3607 19.9702 37.7034 20.3897C36.5675 21.1148 34.7212 20.978 33.5532 20.0824ZM38.4296 15.2003V12.8228L37.286 13.3199C36.1572 13.8104 36.1423 13.8414 36.1423 15.6973V17.5777H37.286H38.4296V15.2003ZM44.6382 12.6643V4.47535H46.4355C48.0358 4.47535 48.2327 4.54295 48.2327 5.09253V5.7097L49.0937 5.09253C50.375 4.17408 52.4739 4.25262 53.5798 5.26041L54.4413 6.04547V13.4494V20.8533H52.6441H50.8469V14.1352V7.41721L49.6215 7.50963L48.3961 7.60205L48.3082 14.2277L48.2202 20.8533H46.4292H44.6382V12.6643ZM58.1357 20.1353C57.244 19.437 57.2158 19.3228 57.1093 15.977L56.9998 12.5367L60.1319 11.1189L63.2641 9.701V8.5591C63.2641 7.42167 63.2593 7.41757 62.0387 7.50963C60.9985 7.58808 60.7985 7.71754 60.7157 8.36601C60.6395 8.96236 60.2196 9.30811 58.8016 9.94187L56.985 10.7538L57.1058 8.3302C57.2163 6.1122 57.304 5.84594 58.1395 5.191C58.9577 4.54969 59.3587 4.47535 62.0003 4.47535C64.8228 4.47535 64.9888 4.51239 65.9033 5.34579L66.8585 6.21622V13.5348V20.8533H65.0613C63.4609 20.8533 63.2641 20.7857 63.2641 20.2361V19.6189L62.4031 20.2361C61.1991 21.0992 59.3095 21.0545 58.1357 20.1353ZM63.2641 15.1894V12.8011L61.957 13.4088C60.6521 14.0154 60.6499 14.0195 60.6499 15.7971V17.5777H61.957H63.2641V15.1894ZM69.4727 12.6643V4.47535H71.2699C72.8924 4.47535 73.0671 4.53775 73.0671 5.11706C73.0671 5.72578 73.0986 5.73278 73.6801 5.25323C75.0289 4.14085 77.5163 4.37484 78.5577 5.71206C78.9627 6.23205 79.0185 6.22158 79.7019 5.4975C80.1708 5.00074 80.8799 4.68015 81.743 4.57465C82.8507 4.43926 83.2354 4.54327 84.1115 5.2151L85.1576 6.0172V13.4352V20.8533H83.5237H81.8899V14.1361V7.41892L80.5011 7.51049L79.1123 7.60205L79.0244 14.2277L78.9365 20.8533H77.3089H75.6813V14.1532V7.45316H74.3742H73.0671V14.1532V20.8533H71.2699H69.4727V12.6643ZM87.7717 19.2155V17.5777H89.5689H91.3662V19.2155V20.8533H89.5689H87.7717V19.2155ZM13.922 3.28601C13.922 1.80967 13.9267 1.80318 15.545 1.05589C16.4376 0.643684 17.2464 0.306423 17.3422 0.306423C17.438 0.306423 17.5165 0.948511 17.5165 1.73329V3.16016L15.7192 3.96341L13.922 4.76666V3.28601ZM26.3392 3.30813V1.80535L27.9622 1.05588C28.8548 0.643672 29.6716 0.306411 29.7773 0.306411C29.883 0.306411 29.9247 0.942917 29.8699 1.72087C29.7733 3.0931 29.7191 3.16034 28.0547 3.97312L26.3392 4.81092V3.30813ZM8.04017 3.14537C8.04017 1.83647 8.07811 1.78784 9.67401 1.05087L11.3079 0.296387V1.6364C11.3079 2.9453 11.2699 2.99394 9.67401 3.7309L8.04017 4.48539V3.14537Z" fill="#A1A1A1"/>
<path d="M0.424468 27.8096C0.309539 27.7049 0.293709 27.5039 0.389292 27.3629C0.48504 27.2218 21.2439 27.1067 46.6182 27.1067C87.3382 27.1067 92.6732 27.1584 92.6732 27.5534C92.6732 27.9483 87.3421 28 46.6533 28C21.3424 28 0.539397 27.9143 0.424468 27.8096ZM5.42604 23.5513V22.0804L6.65142 21.9879L7.8768 21.8955L7.9207 17.9571L7.96392 14.0813L8.05103 6.26706L9.67945 5.51508L11.3079 4.7631V13.7163C11.3079 23.6306 11.2254 24.0832 9.30843 24.6922C8.73698 24.8737 7.62967 25.0222 6.84773 25.0222H5.42604L5.42604 23.5513ZM23.7251 23.5333V22.0444H25.0321H26.3392V14.1582V6.27207L27.9731 5.51758L29.6069 4.7631V14.1217V23.4804L28.6015 24.2513C27.7676 24.8908 27.2662 25.0222 25.6606 25.0222H23.7251V23.5333ZM1.83158 11.3293V1.80536L3.46542 1.05087L5.09927 0.296387V10.5748V20.8533H3.46542H1.83158V11.3293ZM13.922 13.5627V6.27207L15.545 5.5226C16.4376 5.11039 17.2464 4.77313 17.3422 4.77313C17.4381 4.77313 17.5165 8.39116 17.5165 12.8132V20.8533H15.7192H13.922V13.5627ZM20.1306 11.3293V1.80536L21.7536 1.05589C22.6462 0.643684 23.455 0.306423 23.5508 0.306423C23.6467 0.306423 23.7251 4.92946 23.7251 10.5799V20.8533H21.9278H20.1306V11.3293ZM33.503 19.9829C32.5647 19.1277 32.5478 19.0555 32.5478 15.8811V12.6498L35.6521 11.2446L38.7564 9.83932V8.62912V7.41892L37.3677 7.51049C36.1501 7.59076 35.9668 7.69657 35.881 8.36877C35.8077 8.94335 35.4165 9.29782 34.3201 9.78323C33.5155 10.1395 32.7875 10.431 32.7025 10.431C32.6174 10.431 32.5478 9.48265 32.5478 8.32359C32.5478 6.39144 32.6272 6.14385 33.503 5.34579C34.4089 4.52026 34.6015 4.47535 37.2358 4.47535C39.7472 4.47535 40.1097 4.54922 41.0187 5.24627L42.0241 6.0172V13.4352V20.8533H40.3903C38.8504 20.8533 38.7564 20.809 38.7564 20.0824V19.3114L37.751 20.0824C36.3444 21.161 34.755 21.1237 33.503 19.9829ZM38.7564 15.3443C38.7564 13.9522 38.677 12.8132 38.58 12.8132C38.483 12.8132 37.8213 13.0839 37.1096 13.4148C35.8261 14.0115 35.8155 14.0306 35.8155 15.7474C35.8155 16.6995 35.9135 17.5678 36.0334 17.677C36.1532 17.7861 36.8149 17.8755 37.5038 17.8755H38.7564V15.3443ZM44.965 12.6643V4.47535H46.5989C48.0108 4.47535 48.2327 4.55564 48.2327 5.06654C48.2327 5.65603 48.2357 5.65604 49.2947 5.0677C50.8589 4.19862 52.3347 4.29656 53.4861 5.34584L54.4413 6.21629V13.5348V20.8534H52.8137H51.1861L51.0982 14.2277L51.0103 7.60211L49.6215 7.51054L48.2327 7.41898V14.1362V20.8534H46.5989H44.965V12.6643ZM58.6423 20.4179C57.4512 19.8059 57.0555 18.5465 57.0555 15.3671V12.6498L60.1598 11.2446L63.2641 9.83932V8.64624V7.45316H61.957C60.783 7.45316 60.6499 7.52844 60.6499 8.19259C60.6499 8.78014 60.3165 9.08598 59.0269 9.6815C58.1343 10.0937 57.3256 10.431 57.2297 10.431C56.9074 10.431 57.0519 7.25365 57.4177 6.29742C57.9376 4.93822 59.165 4.47535 62.2493 4.47535C64.5389 4.47535 64.9747 4.56404 65.7783 5.19356L66.6951 5.91177L66.7928 13.3825L66.8905 20.8533H65.0773C63.4384 20.8533 63.2641 20.7916 63.2641 20.2116C63.2641 19.5974 63.2372 19.5921 62.6359 20.0879C61.7756 20.7974 59.7128 20.9678 58.6423 20.4179ZM63.2641 15.3443C63.2641 13.9522 63.1955 12.8132 63.1118 12.8132C63.028 12.8132 62.4398 13.039 61.8047 13.315L60.6499 13.8169V15.8462V17.8755H61.957H63.2641V15.3443ZM69.4727 12.6643V4.47535H71.2699C72.8924 4.47535 73.0671 4.53775 73.0671 5.11706C73.0671 5.72578 73.0986 5.73278 73.6801 5.25323C75.029 4.14085 77.5163 4.37484 78.5577 5.71206C78.9627 6.23205 79.0185 6.22158 79.7019 5.4975C80.1708 5.00074 80.8799 4.68015 81.743 4.57465C82.8507 4.43926 83.2354 4.54327 84.1115 5.2151L85.1576 6.0172V13.4352V20.8533H83.5237H81.8899V14.1361V7.41892L80.5011 7.51049L79.1124 7.60205L79.0244 14.2277L78.9365 20.8533H77.3089H75.6813V14.1532V11.8004V7.45316H74.3742H73.0671V14.1532V20.8533H71.2699H69.4727V12.6643ZM88.0985 19.2155V17.5777H89.7323H91.3662V19.2155V20.8533H89.7323H88.0985V19.2155ZM8.04018 3.14537C8.04018 1.83647 8.07812 1.78784 9.67403 1.05087L11.3079 0.296387V1.6364C11.3079 2.9453 11.2699 2.99394 9.67403 3.7309L8.04018 4.48539V3.14537ZM13.922 3.19737C13.922 1.94419 13.9569 1.90381 15.7192 1.11614L17.5165 0.312893V1.73922C17.5165 3.13597 17.4858 3.17914 16.0373 3.82045C15.2237 4.18065 14.415 4.47535 14.24 4.47535C14.0651 4.47535 13.922 3.90026 13.922 3.19737ZM26.3392 3.14036C26.3392 1.83748 26.3785 1.78721 27.9731 1.05087L29.6069 0.296387V1.73097C29.6069 3.1375 29.578 3.17836 28.1277 3.82045C27.3141 4.18065 26.5789 4.47535 26.4939 4.47535C26.4088 4.47535 26.3392 3.8746 26.3392 3.14036Z" fill="#E3DEDB"/>
<path d="M0.424468 27.8096C0.309539 27.7049 0.293709 27.5039 0.389292 27.3629C0.473537 27.2387 16.5542 27.1347 37.7004 27.1115C40.5878 27.1084 43.5697 27.1067 46.6182 27.1067C47.9843 27.1067 49.3107 27.1067 50.5983 27.1069C87.6901 27.1103 92.6732 27.1717 92.6732 27.5533C92.6732 27.9483 87.3421 28 46.6533 28C21.3424 28 0.539397 27.9143 0.424468 27.8096V27.8096ZM23.7251 23.5333V22.0444H25.0321H26.3392V14.1582V6.27207L27.9731 5.51758L29.6069 4.7631V14.1217V23.4804L28.6015 24.2513C27.7676 24.8908 27.2662 25.0222 25.6606 25.0222H23.7251V23.5333ZM13.922 13.5627V6.27207L15.545 5.5226C16.4376 5.11039 17.2464 4.77313 17.3422 4.77313C17.4381 4.77313 17.5165 8.39116 17.5165 12.8132V20.8533H15.7192H13.922V13.5627ZM20.1306 11.3293V1.80536L21.7536 1.05589C22.6462 0.643684 23.455 0.306423 23.5508 0.306423C23.6467 0.306423 23.7251 4.92946 23.7251 10.5799V20.8533H21.9278H20.1306V11.3293ZM33.503 19.9829C32.5647 19.1277 32.5478 19.0555 32.5478 15.8811V12.6498L35.6521 11.2446L38.7564 9.83932V8.62912V7.41892L37.3677 7.51049C36.1501 7.59076 35.9668 7.69657 35.881 8.36877C35.8077 8.94335 35.4165 9.29782 34.3201 9.78323C33.5155 10.1395 32.7875 10.431 32.7025 10.431C32.6174 10.431 32.5478 9.48265 32.5478 8.32359C32.5478 6.39144 32.6272 6.14385 33.503 5.34579C34.4089 4.52026 34.6015 4.47535 37.2358 4.47535C39.7472 4.47535 40.1097 4.54922 41.0187 5.24627L42.0241 6.0172V13.4352V20.8533H40.3903C38.8504 20.8533 38.7564 20.809 38.7564 20.0824V19.3114L37.751 20.0824C36.3444 21.161 34.755 21.1237 33.503 19.9829ZM38.7564 15.3443C38.7564 13.9522 38.677 12.8132 38.58 12.8132C38.483 12.8132 37.8213 13.0839 37.1096 13.4148C35.8261 14.0115 35.8155 14.0306 35.8155 15.7474C35.8155 16.6995 35.9135 17.5678 36.0334 17.677C36.1532 17.7861 36.8149 17.8755 37.5038 17.8755H38.7564V15.3443ZM44.965 12.6643V4.47535H46.5989C48.0108 4.47535 48.2327 4.55564 48.2327 5.06654C48.2327 5.65603 48.2357 5.65604 49.2947 5.0677C50.8589 4.19862 52.3347 4.29656 53.4861 5.34584L54.4413 6.21629V13.5348V20.8534H52.8137H51.1861L51.0982 14.2277L51.0103 7.60211L49.6215 7.51054L48.2327 7.41898V14.1362V20.8534H46.5989H44.965V12.6643ZM58.6423 20.4179C57.4512 19.8059 57.0555 18.5465 57.0555 15.3671V12.6498L60.1598 11.2446L63.2641 9.83932V8.64624V7.45316H61.957C60.783 7.45316 60.6499 7.52844 60.6499 8.19259C60.6499 8.78014 60.3165 9.08598 59.0269 9.6815C58.1343 10.0937 57.3256 10.431 57.2297 10.431C56.9074 10.431 57.0519 7.25365 57.4177 6.29742C57.9376 4.93822 59.165 4.47535 62.2493 4.47535C64.5389 4.47535 64.9747 4.56404 65.7783 5.19356L66.6951 5.91177L66.7928 13.3825L66.8905 20.8533H65.0773C63.4384 20.8533 63.2641 20.7916 63.2641 20.2116C63.2641 19.5974 63.2372 19.5921 62.6359 20.0879C61.7756 20.7974 59.7128 20.9678 58.6423 20.4179ZM63.2641 15.3443C63.2641 13.9522 63.1955 12.8132 63.1118 12.8132C63.028 12.8132 62.4398 13.039 61.8047 13.315L60.6499 13.8169V15.8462V17.8755H61.957H63.2641V15.3443ZM88.0985 19.2155V17.5777H89.7323H91.3662V19.2155V20.8533H89.7323H88.0985V19.2155ZM13.922 3.19737C13.922 1.94419 13.9569 1.90381 15.7192 1.11614L17.5165 0.312893V1.73922C17.5165 3.13597 17.4858 3.17914 16.0373 3.82045C15.2237 4.18065 14.415 4.47535 14.24 4.47535C14.0651 4.47535 13.922 3.90026 13.922 3.19737ZM26.3392 3.14036C26.3392 1.83748 26.3785 1.78721 27.9731 1.05087L29.6069 0.296387V1.73097C29.6069 3.1375 29.578 3.17836 28.1277 3.82045C27.3141 4.18065 26.5789 4.47535 26.4939 4.47535C26.4088 4.47535 26.3392 3.8746 26.3392 3.14036Z" fill="#333333"/>
<path d="M23.7251 23.3844V22.0444H25.0321H26.3392V14.1582V6.27207L27.9731 5.51758L29.6069 4.7631V13.9592C29.6069 22.8117 29.5816 23.1845 28.9296 23.9398C28.3144 24.6526 28.045 24.7244 25.9887 24.7244H23.7251V23.3844ZM14.2488 13.5627V6.27207L15.8826 5.51758L17.5165 4.7631V12.8082V20.8533H15.8826H14.2488V13.5627ZM20.1306 11.3836V1.914L21.6098 1.2591C22.4234 0.898907 23.1586 0.604201 23.2437 0.604201C23.3287 0.604201 23.3983 5.16025 23.3983 10.7288V20.8533H21.7645H20.1306V11.3836ZM34.2609 20.42C32.8484 19.8452 32.5478 18.989 32.5478 15.5411V12.6498L35.6521 11.2446L38.7564 9.83932V8.64624V7.45316H37.286C35.938 7.45316 35.8155 7.51475 35.8155 8.19259C35.8155 8.7808 35.4813 9.08634 34.1817 9.68651L32.5478 10.441V8.66868C32.5478 5.18139 33.6144 4.34825 37.8543 4.52371C40.2235 4.62176 40.523 4.7049 41.2388 5.46326C42.0217 6.29271 42.0241 6.31743 42.0241 13.5743V20.8533H40.3903C38.8369 20.8533 38.7564 20.814 38.7564 20.0569V19.2606L38.0055 19.9035C37.0116 20.7543 35.5708 20.9531 34.2609 20.42ZM38.7564 15.3443C38.7564 13.9147 38.619 12.8132 38.4407 12.8132C38.2671 12.8132 37.6054 13.039 36.9703 13.315L35.8155 13.8169V15.8462V17.8755H37.286H38.7564V15.3443ZM44.965 12.6643V4.47535H46.5989C48.1522 4.47535 48.2327 4.5146 48.2327 5.27171V6.06807L48.9837 5.42518C50.5769 4.06119 53.4251 4.46067 54.1286 6.14679C54.3006 6.55906 54.4413 10.0367 54.4413 13.8748V20.8533H52.8075H51.1736V14.1532V7.45316H49.7032H48.2327V14.1532V20.8533H46.5989H44.965V12.6643ZM59.3428 20.643C59.0733 20.5532 58.5218 20.2054 58.1175 19.8701C57.4392 19.3078 57.3822 19.0041 57.3822 15.9493V12.6379L60.3232 11.3243L63.2641 10.0107V8.73192V7.45316H61.957C60.783 7.45316 60.6499 7.52844 60.6499 8.19259C60.6499 8.7808 60.3158 9.08634 59.0161 9.68651L57.3822 10.441V8.25453C57.3822 6.29293 57.4684 5.99432 58.2198 5.35099C58.9159 4.75504 59.4693 4.61495 61.496 4.52169C63.0119 4.45193 64.3174 4.55401 64.9466 4.7915C66.6762 5.44437 66.8585 6.32211 66.8585 13.9948V20.8533H65.0613C63.3281 20.8533 63.2641 20.8248 63.2641 20.0519C63.2641 19.3479 63.2144 19.3101 62.8556 19.7407C62.1607 20.5746 60.4537 21.0131 59.3428 20.643ZM63.2641 15.3443C63.2641 13.9522 63.1955 12.8132 63.1118 12.8132C63.028 12.8132 62.4398 13.039 61.8047 13.315L60.6499 13.8169V15.8462V17.8755H61.957H63.2641V15.3443ZM88.0985 19.2155V17.5777H89.7323H91.3662V19.2155V20.8533H89.7323H88.0985V19.2155ZM14.2488 3.14537C14.2488 1.83647 14.2867 1.78784 15.8826 1.05087L17.5165 0.296387V1.6364C17.5165 2.9453 17.4785 2.99394 15.8826 3.7309L14.2488 4.48539V3.14537ZM26.3392 3.19468C26.3392 1.97069 26.4047 1.88501 27.8184 1.2591C28.632 0.898907 29.3672 0.604201 29.4523 0.604201C29.5373 0.604201 29.6069 1.18051 29.6069 1.88488C29.6069 3.10887 29.5414 3.19454 28.1277 3.82045C27.3141 4.18065 26.5789 4.47535 26.4939 4.47535C26.4088 4.47535 26.3392 3.89905 26.3392 3.19468Z" fill="#333333"/>
</svg>
