<svg width="109" height="28" viewBox="0 0 109 28" fill="none" xmlns="http://www.w3.org/2000/svg">
<path d="M5.09769 27.8095C4.98276 27.7048 4.96693 27.5038 5.06251 27.3629C5.15827 27.2217 26.0614 27.1066 51.6182 27.1066C92.6286 27.1066 98 27.1583 98 27.5533C98 27.9482 92.6325 28 51.6533 28C26.1627 28 5.21262 27.9143 5.09769 27.8095H5.09769ZM10.0993 23.3844V21.7466H11.4063H12.7134V13.9174V6.08826L14.5106 5.285L16.3079 4.48175V13.9669V23.452L15.4464 24.2371C14.6829 24.9328 14.3297 25.0221 12.3421 25.0221H10.0993V23.3844ZM28.4629 23.4588L28.5617 21.8955L29.7871 21.803L31.0124 21.7106V13.9906V6.27054L32.9731 5.36863L34.9337 4.46671V13.874V23.2813L33.9785 24.1517C33.1014 24.951 32.8329 25.0221 30.6937 25.0221H28.3641L28.4629 23.4588ZM6.5048 11.3293V1.80529L8.12778 1.05582C9.02042 0.643616 9.90269 0.306354 10.0884 0.306354C10.3142 0.306354 10.426 3.70899 10.426 10.5798V20.8532H8.46541H6.5048V11.3293ZM18.922 13.4707V6.08826L20.6851 5.30027C21.6548 4.86688 22.537 4.5933 22.6457 4.69231C22.7543 4.79132 22.8432 8.46803 22.8432 12.8628V20.8532H20.8826H18.922V13.4707ZM25.1306 11.2374V1.62154L26.9278 0.818294L28.7251 0.0150434V10.4341V20.8532H26.9278H25.1306V11.2374ZM38.7426 20.516C37.6888 19.9578 37.221 18.3703 37.221 15.3519V12.5115L40.3253 11.1062C43.3005 9.75937 43.4296 9.66038 43.4296 8.7259C43.4296 7.8101 43.3602 7.75087 42.286 7.75087C41.3116 7.75087 41.1423 7.85191 41.1423 8.43329C41.1423 8.96491 40.7435 9.29392 39.3378 9.92219C38.3453 10.3658 37.4631 10.7287 37.3772 10.7287C37.0146 10.7287 37.2594 7.05259 37.6835 6.12748C38.3275 4.72301 39.0361 4.47528 42.4096 4.47528C45.0501 4.47528 45.4484 4.54937 46.2707 5.19349L47.1875 5.9117L47.2852 13.3825L47.3828 20.8532H45.4062C43.8351 20.8532 43.4296 20.7581 43.4296 20.3897C43.4296 19.9701 43.3607 19.9701 42.7034 20.3897C41.8745 20.9188 39.6376 20.9901 38.7426 20.516ZM43.4296 15.3443C43.4296 14.1159 43.3488 13.1109 43.25 13.1109C43.1513 13.1109 42.6366 13.3154 42.1063 13.5652C41.202 13.9914 41.1423 14.1297 41.1423 15.7986V17.5776H42.286H43.4296V15.3443ZM49.6382 12.6643V4.47528H51.5989C53.2054 4.47528 53.5595 4.56429 53.5595 4.96811C53.5595 5.42668 53.601 5.42668 54.1571 4.96811C54.8419 4.40328 57.1729 4.30423 58.1834 4.79703C59.554 5.46548 59.7681 6.70817 59.7681 13.9947V20.8532H57.8075H55.8469V14.302V7.75087H54.7032H53.5595V14.302V20.8532H51.5989H49.6382V12.6643ZM62.9014 19.937C62.1042 19.0737 62.0555 18.8332 62.0555 15.7662V12.5115L65.1598 11.1062C68.135 9.75937 68.2641 9.66038 68.2641 8.7259C68.2641 7.81387 68.1916 7.75087 67.1431 7.75087C66.2294 7.75087 66.0028 7.87476 65.9177 8.42088C65.8476 8.8711 65.2773 9.35723 64.1795 9.90283C63.2808 10.3494 62.4353 10.7179 62.3005 10.7217C62.1657 10.7256 62.0555 9.73395 62.0555 8.51817C62.0555 6.5745 62.1576 6.19706 62.9014 5.39147C63.7418 4.48135 63.7689 4.47528 67.0016 4.47528C70.101 4.47528 70.294 4.51279 71.0572 5.26322L71.8585 6.05115V13.4522V20.8532H70.0613C68.6525 20.8532 68.2641 20.753 68.2641 20.3897C68.2641 19.9701 68.1951 19.9701 67.5378 20.3897C67.1312 20.6492 66.1373 20.8532 65.2795 20.8532C63.9698 20.8532 63.6246 20.7202 62.9014 19.937ZM68.2641 15.2002V12.8228L67.1204 13.3198C65.9916 13.8103 65.9767 13.8413 65.9767 15.6972V17.5776H67.1204H68.2641V15.2002ZM74.4727 12.6643V4.47528H76.2699C77.6787 4.47528 78.0671 4.57548 78.0671 4.93884C78.0671 5.3584 78.1361 5.3584 78.7934 4.93884C79.9535 4.19835 82.3809 4.33265 83.2606 5.18599L83.9933 5.8967L84.7732 5.18599C85.8661 4.19008 88.1279 4.19374 89.4041 5.19351L90.3209 5.91172L90.4186 13.3825L90.5163 20.8532H88.5397H86.5631V14.3021V7.75089H85.4194H84.2757V14.3021V20.8532H82.4785H80.6813V14.3021V7.75089H79.3742H78.0671V14.3021V20.8532H76.2699H74.4727V12.6643ZM92.7717 19.2154V17.5776H94.7323H96.6929V19.2154V20.8532H94.7323H92.7717V19.2154ZM12.7134 3.28918C12.7134 1.80895 12.7174 1.80344 14.3364 1.05582C15.229 0.643616 16.0378 0.306354 16.1336 0.306354C16.2294 0.306354 16.3079 0.974102 16.3079 1.79024C16.3079 3.27046 16.3039 3.27598 14.6849 4.0236C13.7922 4.4358 12.9835 4.77306 12.8877 4.77306C12.7918 4.77306 12.7134 4.10531 12.7134 3.28918ZM18.922 3.1973V1.62154L20.729 0.813922C22.7649 -0.0959819 22.961 0.0160285 22.7833 1.98728C22.6899 3.02337 22.5206 3.21442 21.046 3.94721C20.1474 4.39378 19.3019 4.76229 19.1671 4.76611C19.0323 4.76998 18.922 4.06397 18.922 3.1973ZM31.0124 3.28845V1.80383L32.9731 0.901915L34.9337 0V1.58004V3.1601L33.1292 3.96658C32.1367 4.41015 31.2545 4.77306 31.1686 4.77306C31.0827 4.77306 31.0124 4.10499 31.0124 3.28845Z" fill="#383E47"/>
<path d="M5.09769 27.8095C4.98276 27.7048 4.96693 27.5038 5.06251 27.3629C5.15827 27.2217 26.0614 27.1066 51.6182 27.1066C92.6286 27.1066 98 27.1583 98 27.5533C98 27.9482 92.6325 28 51.6533 28C26.1627 28 5.21262 27.9143 5.09769 27.8095H5.09769ZM10.1639 23.4588L10.2626 21.8955L11.488 21.803L12.7134 21.7106V13.9913V6.272L14.3364 5.52253C15.229 5.11033 16.0378 4.77306 16.1336 4.77306C16.2294 4.77306 16.3079 8.93741 16.3079 14.0272V23.2813L15.3527 24.1517C14.4891 24.9387 14.1898 25.0221 12.2313 25.0221H10.0651L10.1639 23.4588ZM28.4629 23.4588L28.5617 21.8955L29.7871 21.803L31.0124 21.7106V13.9906V6.27054L32.9731 5.36863L34.9337 4.46671V13.874V23.2813L33.9785 24.1517C33.1014 24.951 32.8329 25.0221 30.6937 25.0221H28.3641L28.4629 23.4588ZM6.5048 11.3293V1.80529L8.12778 1.05582C9.02042 0.643616 9.82917 0.306354 9.925 0.306354C10.0208 0.306354 10.0993 4.9294 10.0993 10.5798V20.8532H8.30203H6.5048V11.3293ZM18.922 13.4707V6.08826L20.6851 5.30027C21.6548 4.86688 22.537 4.5933 22.6457 4.69231C22.7543 4.79132 22.8432 8.46803 22.8432 12.8628V20.8532H20.8826H18.922V13.4707ZM25.1306 11.2374V1.62154L26.9278 0.818294L28.7251 0.0150434V10.4341V20.8532H26.9278H25.1306V11.2374ZM38.7426 20.516C37.6888 19.9578 37.221 18.3703 37.221 15.3519V12.5115L40.3253 11.1062C43.3005 9.75937 43.4296 9.66038 43.4296 8.7259C43.4296 7.8101 43.3602 7.75087 42.286 7.75087C41.3116 7.75087 41.1423 7.85191 41.1423 8.43329C41.1423 8.96491 40.7435 9.29392 39.3378 9.92219C38.3453 10.3658 37.4631 10.7287 37.3772 10.7287C37.0146 10.7287 37.2594 7.05259 37.6835 6.12748C38.3275 4.72301 39.0361 4.47528 42.4096 4.47528C45.0501 4.47528 45.4484 4.54937 46.2707 5.19349L47.1875 5.9117L47.2852 13.3825L47.3828 20.8532H45.4062C43.8351 20.8532 43.4296 20.7581 43.4296 20.3897C43.4296 19.9701 43.3607 19.9701 42.7034 20.3897C41.8745 20.9188 39.6376 20.9901 38.7426 20.516ZM43.4296 15.3443C43.4296 14.1159 43.3488 13.1109 43.25 13.1109C43.1513 13.1109 42.6366 13.3154 42.1063 13.5652C41.202 13.9914 41.1423 14.1297 41.1423 15.7986V17.5776H42.286H43.4296V15.3443ZM49.6382 12.6643V4.47528H51.5989C53.2054 4.47528 53.5595 4.56429 53.5595 4.96811C53.5595 5.42668 53.601 5.42668 54.1571 4.96811C54.8419 4.40328 57.1729 4.30423 58.1834 4.79703C59.554 5.46548 59.7681 6.70817 59.7681 13.9947V20.8532H57.8075H55.8469V14.302V7.75087H54.7032H53.5595V14.302V20.8532H51.5989H49.6382V12.6643ZM62.9014 19.937C62.1042 19.0737 62.0555 18.8332 62.0555 15.7662V12.5115L65.1598 11.1062C68.135 9.75937 68.2641 9.66038 68.2641 8.7259C68.2641 7.81387 68.1916 7.75087 67.1431 7.75087C66.2294 7.75087 66.0028 7.87476 65.9177 8.42088C65.8476 8.8711 65.2773 9.35723 64.1795 9.90283C63.2808 10.3494 62.4353 10.7179 62.3005 10.7217C62.1657 10.7256 62.0555 9.73395 62.0555 8.51817C62.0555 6.5745 62.1576 6.19706 62.9014 5.39147C63.7418 4.48135 63.7689 4.47528 67.0016 4.47528C70.101 4.47528 70.294 4.51279 71.0572 5.26322L71.8585 6.05115V13.4522V20.8532H70.0613C68.6525 20.8532 68.2641 20.753 68.2641 20.3897C68.2641 19.9701 68.1951 19.9701 67.5378 20.3897C67.1312 20.6492 66.1373 20.8532 65.2795 20.8532C63.9698 20.8532 63.6246 20.7202 62.9014 19.937ZM68.2641 15.2002V12.8228L67.1204 13.3198C65.9916 13.8103 65.9767 13.8413 65.9767 15.6972V17.5776H67.1204H68.2641V15.2002ZM74.4727 12.6643V4.47528H76.2699C77.8703 4.47528 78.0671 4.54289 78.0671 5.09246V5.70963L78.9281 5.09246C80.2647 4.13437 82.1559 4.25698 83.3031 5.3761C84.1374 6.19003 84.2452 6.22311 84.4208 5.71907C84.7968 4.6394 87.4546 4.09226 88.8996 4.79703C90.2702 5.46548 90.4843 6.70817 90.4843 13.9947V20.8532H88.6934H86.9024L86.8144 14.2276L86.7265 7.60198L85.5011 7.50956L84.2757 7.41714V14.1352V20.8532H82.4785H80.6813V14.1532V7.45309H79.3742H78.0671V14.1532V20.8532H76.2699H74.4727V12.6643ZM92.7717 19.2154V17.5776H94.7323H96.6929V19.2154V20.8532H94.7323H92.7717V19.2154ZM12.7134 3.28594C12.7134 1.8096 12.7181 1.80311 14.3364 1.05582C15.229 0.643616 16.0378 0.306354 16.1336 0.306354C16.2294 0.306354 16.3079 0.948443 16.3079 1.73322V3.1601L14.5106 3.96334L12.7134 4.76659V3.28594ZM18.922 3.1973V1.62154L20.729 0.813922C22.7649 -0.0959819 22.961 0.0160285 22.7833 1.98728C22.6899 3.02337 22.5206 3.21442 21.046 3.94721C20.1474 4.39378 19.3019 4.76229 19.1671 4.76611C19.0323 4.76998 18.922 4.06397 18.922 3.1973ZM31.0124 3.28845V1.80383L32.9731 0.901915L34.9337 0V1.58004V3.1601L33.1292 3.96658C32.1367 4.41015 31.2545 4.77306 31.1686 4.77306C31.0827 4.77306 31.0124 4.10499 31.0124 3.28845Z" fill="#383E47"/>
<path d="M5.42447 27.8096C5.30954 27.7049 5.29371 27.5039 5.38929 27.3629C5.47354 27.2387 21.5542 27.1347 42.7004 27.1115C45.5878 27.1084 48.5697 27.1067 51.6182 27.1067C52.9843 27.1067 54.3107 27.1067 55.5983 27.1069C92.6901 27.1103 97.6732 27.1717 97.6732 27.5533C97.6732 27.9483 92.3421 28 51.6533 28C26.3424 28 5.5394 27.9143 5.42447 27.8096V27.8096ZM28.7251 23.5333V22.0444H30.0321H31.3392V14.1582V6.27207L32.9731 5.51758L34.6069 4.7631V14.1217V23.4804L33.6015 24.2513C32.7676 24.8908 32.2662 25.0222 30.6606 25.0222H28.7251V23.5333ZM18.922 13.5627V6.27207L20.545 5.5226C21.4376 5.11039 22.2464 4.77313 22.3422 4.77313C22.4381 4.77313 22.5165 8.39116 22.5165 12.8132V20.8533H20.7192H18.922V13.5627ZM25.1306 11.3293V1.80536L26.7536 1.05589C27.6462 0.643684 28.455 0.306423 28.5508 0.306423C28.6467 0.306423 28.7251 4.92946 28.7251 10.5799V20.8533H26.9278H25.1306V11.3293ZM38.503 19.9829C37.5647 19.1277 37.5478 19.0555 37.5478 15.8811V12.6498L40.6521 11.2446L43.7564 9.83932V8.62912V7.41892L42.3677 7.51049C41.1501 7.59076 40.9668 7.69657 40.881 8.36877C40.8077 8.94335 40.4165 9.29782 39.3201 9.78323C38.5155 10.1395 37.7875 10.431 37.7025 10.431C37.6174 10.431 37.5478 9.48265 37.5478 8.32359C37.5478 6.39144 37.6272 6.14385 38.503 5.34579C39.4089 4.52026 39.6015 4.47535 42.2358 4.47535C44.7472 4.47535 45.1097 4.54922 46.0187 5.24627L47.0241 6.0172V13.4352V20.8533H45.3903C43.8504 20.8533 43.7564 20.809 43.7564 20.0824V19.3114L42.751 20.0824C41.3444 21.161 39.755 21.1237 38.503 19.9829ZM43.7564 15.3443C43.7564 13.9522 43.677 12.8132 43.58 12.8132C43.483 12.8132 42.8213 13.0839 42.1096 13.4148C40.8261 14.0115 40.8155 14.0306 40.8155 15.7474C40.8155 16.6995 40.9135 17.5678 41.0334 17.677C41.1532 17.7861 41.8149 17.8755 42.5038 17.8755H43.7564V15.3443ZM49.965 12.6643V4.47535H51.5989C53.0108 4.47535 53.2327 4.55564 53.2327 5.06654C53.2327 5.65603 53.2357 5.65604 54.2947 5.0677C55.8589 4.19862 57.3347 4.29656 58.4861 5.34584L59.4413 6.21629V13.5348V20.8534H57.8137H56.1861L56.0982 14.2277L56.0103 7.60211L54.6215 7.51054L53.2327 7.41898V14.1362V20.8534H51.5989H49.965V12.6643ZM63.6423 20.4179C62.4512 19.8059 62.0555 18.5465 62.0555 15.3671V12.6498L65.1598 11.2446L68.2641 9.83932V8.64624V7.45316H66.957C65.783 7.45316 65.6499 7.52844 65.6499 8.19259C65.6499 8.78014 65.3165 9.08598 64.0269 9.6815C63.1343 10.0937 62.3256 10.431 62.2297 10.431C61.9074 10.431 62.0519 7.25365 62.4177 6.29742C62.9376 4.93822 64.165 4.47535 67.2493 4.47535C69.5389 4.47535 69.9747 4.56404 70.7783 5.19356L71.6951 5.91177L71.7928 13.3825L71.8905 20.8533H70.0773C68.4384 20.8533 68.2641 20.7916 68.2641 20.2116C68.2641 19.5974 68.2372 19.5921 67.6359 20.0879C66.7756 20.7974 64.7128 20.9678 63.6423 20.4179ZM68.2641 15.3443C68.2641 13.9522 68.1955 12.8132 68.1118 12.8132C68.028 12.8132 67.4398 13.039 66.8047 13.315L65.6499 13.8169V15.8462V17.8755H66.957H68.2641V15.3443ZM93.0985 19.2155V17.5777H94.7323H96.3662V19.2155V20.8533H94.7323H93.0985V19.2155ZM18.922 3.19737C18.922 1.94419 18.9569 1.90381 20.7192 1.11614L22.5165 0.312893V1.73922C22.5165 3.13597 22.4858 3.17914 21.0373 3.82045C20.2237 4.18065 19.415 4.47535 19.24 4.47535C19.0651 4.47535 18.922 3.90026 18.922 3.19737ZM31.3392 3.14036C31.3392 1.83748 31.3785 1.78721 32.9731 1.05087L34.6069 0.296387V1.73097C34.6069 3.1375 34.578 3.17836 33.1277 3.82045C32.3141 4.18065 31.5789 4.47535 31.4939 4.47535C31.4088 4.47535 31.3392 3.8746 31.3392 3.14036Z" fill="#383E47"/>
<path d="M28.7251 23.3844V22.0444H30.0321H31.3392V14.1582V6.27207L32.9731 5.51758L34.6069 4.7631V13.9592C34.6069 22.8117 34.5816 23.1845 33.9296 23.9398C33.3144 24.6526 33.045 24.7244 30.9887 24.7244H28.7251V23.3844ZM19.2488 13.5627V6.27207L20.8826 5.51758L22.5165 4.7631V12.8082V20.8533H20.8826H19.2488V13.5627ZM25.1306 11.3836V1.914L26.6098 1.2591C27.4234 0.898907 28.1586 0.604201 28.2437 0.604201C28.3287 0.604201 28.3983 5.16025 28.3983 10.7288V20.8533H26.7645H25.1306V11.3836ZM39.2609 20.42C37.8484 19.8452 37.5478 18.989 37.5478 15.5411V12.6498L40.6521 11.2446L43.7564 9.83932V8.64624V7.45316H42.286C40.938 7.45316 40.8155 7.51475 40.8155 8.19259C40.8155 8.7808 40.4813 9.08634 39.1817 9.68651L37.5478 10.441V8.66868C37.5478 5.18139 38.6144 4.34825 42.8543 4.52371C45.2235 4.62176 45.523 4.7049 46.2388 5.46326C47.0217 6.29271 47.0241 6.31743 47.0241 13.5743V20.8533H45.3903C43.8369 20.8533 43.7564 20.814 43.7564 20.0569V19.2606L43.0055 19.9035C42.0116 20.7543 40.5708 20.9531 39.2609 20.42ZM43.7564 15.3443C43.7564 13.9147 43.619 12.8132 43.4407 12.8132C43.2671 12.8132 42.6054 13.039 41.9703 13.315L40.8155 13.8169V15.8462V17.8755H42.286H43.7564V15.3443ZM49.965 12.6643V4.47535H51.5989C53.1522 4.47535 53.2327 4.5146 53.2327 5.27171V6.06807L53.9837 5.42518C55.5769 4.06119 58.4251 4.46067 59.1286 6.14679C59.3006 6.55906 59.4413 10.0367 59.4413 13.8748V20.8533H57.8075H56.1736V14.1532V7.45316H54.7032H53.2327V14.1532V20.8533H51.5989H49.965V12.6643ZM64.3428 20.643C64.0733 20.5532 63.5218 20.2054 63.1175 19.8701C62.4392 19.3078 62.3822 19.0041 62.3822 15.9493V12.6379L65.3232 11.3243L68.2641 10.0107V8.73192V7.45316H66.957C65.783 7.45316 65.6499 7.52844 65.6499 8.19259C65.6499 8.7808 65.3158 9.08634 64.0161 9.68651L62.3822 10.441V8.25453C62.3822 6.29293 62.4684 5.99432 63.2198 5.35099C63.9159 4.75504 64.4693 4.61495 66.496 4.52169C68.0119 4.45193 69.3174 4.55401 69.9466 4.7915C71.6762 5.44437 71.8585 6.32211 71.8585 13.9948V20.8533H70.0613C68.3281 20.8533 68.2641 20.8248 68.2641 20.0519C68.2641 19.3479 68.2144 19.3101 67.8556 19.7407C67.1607 20.5746 65.4537 21.0131 64.3428 20.643ZM68.2641 15.3443C68.2641 13.9522 68.1955 12.8132 68.1118 12.8132C68.028 12.8132 67.4398 13.039 66.8047 13.315L65.6499 13.8169V15.8462V17.8755H66.957H68.2641V15.3443ZM93.0985 19.2155V17.5777H94.7323H96.3662V19.2155V20.8533H94.7323H93.0985V19.2155ZM19.2488 3.14537C19.2488 1.83647 19.2867 1.78784 20.8826 1.05087L22.5165 0.296387V1.6364C22.5165 2.9453 22.4785 2.99394 20.8826 3.7309L19.2488 4.48539V3.14537ZM31.3392 3.19468C31.3392 1.97069 31.4047 1.88501 32.8184 1.2591C33.632 0.898907 34.3672 0.604201 34.4523 0.604201C34.5373 0.604201 34.6069 1.18051 34.6069 1.88488C34.6069 3.10887 34.5414 3.19454 33.1277 3.82045C32.3141 4.18065 31.5789 4.47535 31.4939 4.47535C31.4088 4.47535 31.3392 3.89905 31.3392 3.19468Z" fill="#383E47"/>
<path d="M109 26H0V28H95.375L109 26Z" fill="#FF914D"/>
</svg>
