<svg width="131" height="18" viewBox="0 0 131 18" fill="none" xmlns="http://www.w3.org/2000/svg">
<path d="M31.8935 15.9042C31.8935 16.4185 31.7171 16.8556 31.3644 17.2156C31.0117 17.5756 30.5835 17.7556 30.0796 17.7556C29.5758 17.7556 29.1475 17.5756 28.7948 17.2156C28.4421 16.8556 28.2658 16.4185 28.2658 15.9042V7.49561C28.2658 6.44133 28.2028 5.91419 28.0768 5.91419C27.9761 5.91419 27.6234 6.26133 27.0188 6.95561L18.7053 16.5985C18.3778 16.9842 17.9747 17.2799 17.4961 17.4856C17.0174 17.6656 16.501 17.7556 15.9467 17.7556C15.3925 17.7556 14.8761 17.6656 14.3974 17.4856C13.9188 17.2799 13.5157 16.9842 13.1882 16.5985L4.87471 6.95561C4.29529 6.26133 3.9426 5.91419 3.81663 5.91419C3.69067 5.91419 3.62769 6.44133 3.62769 7.49561V15.9042C3.62769 16.4185 3.45135 16.8556 3.09865 17.2156C2.74596 17.5756 2.31769 17.7556 1.81385 17.7556C1.31 17.7556 0.881731 17.5756 0.529038 17.2156C0.176346 16.8556 0 16.4185 0 15.9042V4.64133C0 3.61276 0.289712 2.73848 0.869135 2.01848C1.44856 1.29848 2.24212 0.938477 3.24981 0.938477C3.85442 0.938477 4.39606 1.09276 4.87471 1.40133C5.35337 1.70991 5.79423 2.08276 6.19731 2.51991L14.8887 12.6256C15.0146 12.7542 15.1658 12.8956 15.3421 13.0499C15.5437 13.1785 15.7452 13.2428 15.9467 13.2428C16.1483 13.2428 16.3372 13.1785 16.5136 13.0499C16.7151 12.8956 16.8788 12.7542 17.0048 12.6256L25.6584 2.51991H25.6962C26.0488 2.03133 26.4771 1.64562 26.981 1.36276C27.4848 1.07991 28.039 0.938477 28.6437 0.938477C29.6513 0.938477 30.4449 1.29848 31.0243 2.01848C31.6038 2.73848 31.8935 3.61276 31.8935 4.64133V15.9042Z" fill="#383E47"/>
<path d="M38.8971 17.0615C38.5192 17.5244 38.0531 17.7558 37.4989 17.7558C36.9951 17.7558 36.5668 17.5758 36.2141 17.2158C35.8614 16.8558 35.6851 16.4187 35.6851 15.9044C35.6851 15.4415 35.811 15.0687 36.0629 14.7858L45.2455 2.17295C45.6738 1.58152 46.2406 1.10581 46.946 0.745808C47.6514 0.360093 48.4072 0.167236 49.2133 0.167236C49.9691 0.167236 50.6871 0.334378 51.3673 0.668665C52.0475 1.00295 52.6017 1.46581 53.03 2.05724L62.2126 14.5929C62.3637 14.7729 62.4897 14.9787 62.5904 15.2101C62.6912 15.4158 62.7416 15.6472 62.7416 15.9044C62.7416 16.4187 62.5652 16.8558 62.2126 17.2158C61.8599 17.5758 61.4316 17.7558 60.9277 17.7558C60.3231 17.7558 59.8445 17.5115 59.4918 17.0229L50.6871 5.02724C50.5107 4.82152 50.284 4.60295 50.0069 4.37152C49.755 4.11438 49.4904 3.98581 49.2133 3.98581C48.9362 3.98581 48.6591 4.11438 48.382 4.37152C48.1301 4.60295 47.9285 4.82152 47.7774 5.02724L38.8971 17.0615Z" fill="#383E47"/>
<path d="M89.798 10.26C90.4782 10.6971 91.171 11.1728 91.8763 11.6871C92.5817 12.1757 93.2997 12.7157 94.0303 13.3071C94.3074 13.5128 94.5467 13.7571 94.7483 14.04C94.9498 14.2971 95.0506 14.6057 95.0506 14.9657C95.0506 15.48 94.8742 15.9171 94.5215 16.2771C94.1688 16.6371 93.7406 16.8171 93.2367 16.8171C92.8085 16.8171 92.3802 16.6371 91.9519 16.2771C90.919 15.5057 89.861 14.76 88.7777 14.04C87.6944 13.32 86.5608 12.6771 85.3767 12.1114C84.2179 11.5457 83.0087 11.0957 81.749 10.7614C80.4894 10.4271 79.1794 10.26 77.819 10.26H70.2991C69.9716 10.3114 69.6945 10.4657 69.4678 10.7228C69.2411 10.98 69.1277 11.3014 69.1277 11.6871V14.9657C69.1277 15.48 68.9387 15.9171 68.5609 16.2771C68.2082 16.6371 67.7925 16.8171 67.3138 16.8171C66.81 16.8171 66.3817 16.6371 66.029 16.2771C65.6763 15.9171 65.5 15.48 65.5 14.9657V11.2628C65.5 10.62 65.6134 10.0157 65.8401 9.44999C66.092 8.85856 66.4195 8.35714 66.8226 7.94571C67.2257 7.50856 67.7043 7.17428 68.2586 6.94285C68.8128 6.68571 69.4174 6.55714 70.0724 6.55714H90.1003C90.4782 6.55714 90.8057 6.42857 91.0828 6.17142C91.3851 5.88857 91.5362 5.54142 91.5362 5.13C91.5362 4.74429 91.3851 4.41 91.0828 4.12714C90.8057 3.84429 90.4782 3.70286 90.1003 3.70286H67.3138C66.81 3.70286 66.3817 3.52286 66.029 3.16286C65.6763 2.80286 65.5 2.36571 65.5 1.85143C65.5 1.33714 65.6763 0.9 66.029 0.54C66.3817 0.18 66.81 0 67.3138 0H89.9491C90.6545 0 91.3095 0.141428 91.9141 0.424286C92.5439 0.681428 93.0856 1.04143 93.539 1.50429C94.0177 1.96714 94.383 2.50714 94.6349 3.12429C94.912 3.74143 95.0506 4.41 95.0506 5.13C95.0506 5.84999 94.912 6.51857 94.6349 7.13571C94.383 7.75285 94.0177 8.29285 93.539 8.75571C93.0856 9.21856 92.5439 9.59142 91.9141 9.87428C91.3095 10.1314 90.6545 10.26 89.9491 10.26H89.798Z" fill="#383E47"/>
<path d="M104.885 11.1985C104.18 11.1985 103.525 11.0699 102.92 10.8128C102.315 10.5299 101.786 10.157 101.333 9.69418C100.879 9.23133 100.514 8.69133 100.237 8.07419C99.9851 7.45704 99.8591 6.78847 99.8591 6.06848C99.8591 5.34848 99.9851 4.67991 100.237 4.06276C100.514 3.44562 100.879 2.90562 101.333 2.44276C101.786 1.97991 102.315 1.61991 102.92 1.36276C103.525 1.07991 104.18 0.938477 104.885 0.938477H127.823C128.326 0.938477 128.755 1.11848 129.107 1.47848C129.46 1.83848 129.636 2.27562 129.636 2.78991C129.636 3.30419 129.46 3.74133 129.107 4.10133C128.755 4.46133 128.326 4.64133 127.823 4.64133H104.809C104.432 4.64133 104.091 4.78276 103.789 5.06562C103.512 5.32276 103.373 5.65705 103.373 6.06848C103.373 6.45419 103.512 6.78847 103.789 7.07133C104.091 7.35418 104.432 7.49561 104.809 7.49561H125.706C126.412 7.49561 127.067 7.63704 127.671 7.9199C128.301 8.17704 128.843 8.53704 129.296 8.9999C129.75 9.46276 130.103 10.0156 130.354 10.6585C130.632 11.2756 130.77 11.9442 130.77 12.6642C130.77 13.3842 130.632 14.0528 130.354 14.6699C130.103 15.287 129.75 15.827 129.296 16.2899C128.843 16.7528 128.301 17.1128 127.671 17.3699C127.067 17.627 126.412 17.7556 125.706 17.7556H102.807C102.303 17.7556 101.875 17.5756 101.522 17.2156C101.169 16.8556 100.993 16.4185 100.993 15.9042C100.993 15.3899 101.169 14.9528 101.522 14.5928C101.875 14.2328 102.303 14.0528 102.807 14.0528H125.858C126.235 14.0528 126.563 13.9242 126.84 13.667C127.117 13.3842 127.256 13.0499 127.256 12.6642C127.256 12.2528 127.117 11.9056 126.84 11.6228C126.563 11.3399 126.235 11.1985 125.858 11.1985H104.885Z" fill="#383E47"/>
</svg>
